<svg xmlns="http://www.w3.org/2000/svg" xmlns:xlink="http://www.w3.org/1999/xlink" width="610.218" height="367.1" viewBox="0 0 610.218 367.1">
  <defs>
    <linearGradient id="linear-gradient" x1="-0.263" y1="0.5" x2="0.737" y2="0.5" gradientUnits="objectBoundingBox">
      <stop offset="0" stop-color="#e0f0eb"/>
      <stop offset="1" stop-color="#c0e4ef"/>
    </linearGradient>
    <linearGradient id="linear-gradient-2" x1="2.174" y1="0.5" x2="3.174" y2="0.5" xlink:href="#linear-gradient"/>
    <linearGradient id="linear-gradient-3" y1="0.5" x2="1" y2="0.5" gradientUnits="objectBoundingBox">
      <stop offset="0" stop-color="#f1f8f8"/>
      <stop offset="1" stop-color="#c0e4ef"/>
    </linearGradient>
    <linearGradient id="linear-gradient-4" x1="0" y1="0.5" x2="1" y2="0.5" xlink:href="#linear-gradient-3"/>
    <linearGradient id="linear-gradient-5" x1="0" y1="0.5" x2="1" y2="0.5" xlink:href="#linear-gradient-3"/>
    <linearGradient id="linear-gradient-6" x1="0" y1="0.5" x2="1" y2="0.5" xlink:href="#linear-gradient-3"/>
    <clipPath id="clip-path">
      <path id="Path_4147" data-name="Path 4147" d="M231.254,244.657s-7.469-9.845-7.469-20.486,7.055-19.208,7.055-19.208V204.2H132.321c-11.978,0-21.781,8.568-21.781,19.043v3.367c0,10.475,9.8,19.043,21.781,19.043H230.84l.414-.257Z" transform="translate(-110.54 -204.2)"/>
    </clipPath>
    <linearGradient id="linear-gradient-7" x1="0.551" y1="0.013" x2="0.301" y2="1.06" gradientUnits="objectBoundingBox">
      <stop offset="0" stop-color="#0b1e31"/>
      <stop offset="0.477" stop-color="#182a36"/>
      <stop offset="0.812" stop-color="#00a7e7"/>
      <stop offset="1" stop-color="#00a7e7"/>
    </linearGradient>
    <linearGradient id="linear-gradient-8" x1="0" y1="0.5" x2="1" y2="0.5" xlink:href="#linear-gradient"/>
  </defs>
  <g id="Group_2670" data-name="Group 2670" transform="translate(-243 -1117)">
    <g id="coaching-on-the-go" transform="translate(192.682 1035.59)">
      <path id="Path_3649" data-name="Path 3649" d="M660.19,297.82c5.07,22.03-46.89,24.87-68.3,25.11a83.77,83.77,0,0,1-17.66-1.68c-18.11-3.67-57.74-13.32-52.18-26.43,7.17-16.92,28.72-5.12,28.72-5.12s-2.7-12.77,33.96-21.21,36.51,19.67,36.51,19.67S653.82,270.14,660.19,297.82Z" fill="url(#linear-gradient)"/>
      <path id="Path_3650" data-name="Path 3650" d="M298.01,185.73H89.16s-11.33-14.33,0-23.97c6.25-5.32,13.63-4.77,18.99-3.21a6.247,6.247,0,0,0,7.74-4.9c1.27-5.89,5.18-13.6,16.43-18.15,11.06-4.48,18.06,2.36,22.1,9.39a3.139,3.139,0,0,0,5.68-.58c3.51-11.1,15.73-25.81,55.87-25.81,51.06,0,45.39,27.15,40.83,38.43a2.6,2.6,0,0,0,2.95,3.55c7.88-1.68,22.5-3.87,29.05,1.28C298.01,168.99,298.01,185.73,298.01,185.73Z" fill="url(#linear-gradient-2)"/>
      <g id="Group_1840" data-name="Group 1840">
        <g id="Group_1836" data-name="Group 1836">
          <path id="Path_3651" data-name="Path 3651" d="M214.89,302.4s-12.41-93.91-79.6-111.29c-69.54,97.09,26.13,165.22,26.13,165.22Z" fill="#01898c"/>
          <path id="Path_3652" data-name="Path 3652" d="M135.3,191.11c-.24.34-.47.67-.71,1.01l41.8,103.5L110.6,272.87c.09.77.19,1.54.29,2.3l66.53,23.01,12.06,29.87,1.59-1.61L167.03,266.9h0l22.72-33.35c-.4-.63-.81-1.27-1.22-1.9L166.1,264.58l-29.53-73.12c-.43-.11-.85-.24-1.27-.35Z" fill="#fff"/>
        </g>
        <g id="Group_1837" data-name="Group 1837">
          <path id="Path_3653" data-name="Path 3653" d="M183.77,294.25s-68.19-65.38-131.48-45.06c-15.83,78.36,68.87,109.3,68.87,109.3l82.53-3.63Z" fill="#ffd247"/>
          <path id="Path_3654" data-name="Path 3654" d="M125.69,256.18l-1.23,41.87L53.8,248.74c-.5.15-1,.29-1.51.45-.06.31-.11.61-.17.92l37.84,26.41-37.81,9.23c.08.36.17.72.25,1.07l.23.95,39.6-9.67,63.07,44.02L89.47,340.44c.7.54,1.41,1.06,2.11,1.57l65.94-18.35,44.78,31.25,1.39-.06-.64-1.95-76.56-53.43,1.25-42.39C127.07,256.78,126.38,256.48,125.69,256.18Z" fill="#fff"/>
        </g>
        <g id="Group_1839" data-name="Group 1839">
          <path id="Path_3655" data-name="Path 3655" d="M180.09,339.3s-78-11.54-104.18,34.49c51.74,94.95,176.18,35.85,176.18,35.85Z" fill="#63c1c5"/>
          <g id="Group_1838" data-name="Group 1838">
            <path id="Path_3656" data-name="Path 3656" d="M75.91,373.79c.2.37.4.72.6,1.08l106.53,7.45-39.36,42.77c.8.17,1.59.33,2.39.48l39.63-43.06,41.61,2.91-2.3-2.25L144,377.5l-29.17-33.2c-.71.23-1.42.48-2.13.73l28.35,32.27-64.54-4.51c-.2.33-.41.66-.6,1Z" fill="#01898c"/>
          </g>
        </g>
      </g>
      <g id="Group_1845" data-name="Group 1845">
        <g id="Group_1841" data-name="Group 1841">
          <path id="Path_3657" data-name="Path 3657" d="M476.97,337.87s-26.05-81.42,22.09-121.49c94.14,52.45,42.32,144.9,42.32,144.9Z" fill="#01898c"/>
          <path id="Path_3658" data-name="Path 3658" d="M499.06,216.38c.33.18.65.37.97.55l5.76,100.56,44.92-43.91c.23.66.44,1.33.65,1.99l-45.43,44.41L507.59,349l-1.92-.7-3.31-57.85h0l-31.39-18.46c.08-.67.17-1.35.27-2.02l30.99,18.23-4.07-71.04c.31-.27.6-.53.9-.78Z" fill="#fff"/>
        </g>
        <g id="Group_1844" data-name="Group 1844">
          <path id="Path_3661" data-name="Path 3661" d="M519.59,354.57l-11.86,31.88a37.95,37.95,0,0,1,11.43,5.43q3.75,3.45,7.5,6.91a33.413,33.413,0,0,1,7.67,15.85,50.846,50.846,0,0,1,7.33,6.65,30.254,30.254,0,0,1,5.1,7.85c33.01-11.56,68.19-35.78,71.13-86.56C578.8,315.11,519.59,354.57,519.59,354.57Z" fill="#043c5e"/>
          <g id="Group_1843" data-name="Group 1843">
            <path id="Path_3662" data-name="Path 3662" d="M617.9,342.58h0c-.29-.21-.58-.39-.87-.59L566.1,370.53l10.7-37.25c-.67.07-1.35.14-2.02.23l-11.01,38.33-41.25,23.12c.48.45.97.89,1.45,1.34l7.7-4.31,48.93,19.87c.59-.43,1.18-.87,1.76-1.31l-48.6-19.74,84.06-47.11C617.85,343.33,617.88,342.96,617.9,342.58Z" fill="#00666a"/>
          </g>
        </g>
      </g>
      <g id="Group_1846" data-name="Group 1846">
        <path id="Path_3663" data-name="Path 3663" d="M128.7,172.84H472.11l86.45,246.75H207.95Z" fill="#63c1c5"/>
        <path id="Path_3664" data-name="Path 3664" d="M143.34,181.24H463.35l80.57,229.94H217.19Z" fill="#043c5e"/>
        <path id="Path_3665" data-name="Path 3665" d="M649.69,431.53H212a8.548,8.548,0,0,1-8.52-8.53v-5.38a8.555,8.555,0,0,1,8.52-8.53H649.69a8.548,8.548,0,0,1,8.52,8.53V423A8.542,8.542,0,0,1,649.69,431.53Z" fill="#f7a605"/>
        <path id="Path_3666" data-name="Path 3666" d="M362.1,431.53H208.66a5.194,5.194,0,0,1-5.18-5.18V414.27a5.194,5.194,0,0,1,5.18-5.18H362.1a9.18,9.18,0,0,1,9.15,9.15v4.14A9.18,9.18,0,0,1,362.1,431.53Z" fill="#ffdb71"/>
        <path id="Path_3667" data-name="Path 3667" d="M526.08,419.98a3.27,3.27,0,1,1-3.27-3.27A3.265,3.265,0,0,1,526.08,419.98Z" fill="#ffdb71"/>
        <path id="Path_3668" data-name="Path 3668" d="M506.43,419.98a3.27,3.27,0,1,1-3.27-3.27A3.265,3.265,0,0,1,506.43,419.98Z" fill="#f18813"/>
        <path id="Path_3669" data-name="Path 3669" d="M322.36,423.52H302.82a3.875,3.875,0,0,1-3.86-3.86h0a3.875,3.875,0,0,1,3.86-3.86h19.54a3.875,3.875,0,0,1,3.86,3.86h0A3.869,3.869,0,0,1,322.36,423.52Z" fill="#f7a605"/>
        <path id="Path_3670" data-name="Path 3670" d="M287.35,423.52H267.8a3.875,3.875,0,0,1-3.86-3.86h0a3.875,3.875,0,0,1,3.86-3.86h19.54a3.875,3.875,0,0,1,3.86,3.86h0A3.86,3.86,0,0,1,287.35,423.52Z" fill="#f18813"/>
      </g>
      <path id="Path_3671" data-name="Path 3671" d="M168.04,193.88l70.63,215.94H529.39L454.56,193.88Z" fill="#63c1c5"/>
      <path id="Path_3674" data-name="Path 3674" d="M201.48,230.9l8.67,25.13H348.72l-6.8-24.48Z" fill="#043c5e"/>
      <path id="Path_3676" data-name="Path 3676" d="M210.48,268.97l4.67,12.56H353.72l-6.8-12.24Z" fill="#01898c"/>
      <path id="Path_3677" data-name="Path 3677" d="M219.44,301.51l4.67,12.57H362.68l-6.8-12.24Z" fill="#fff"/>
      <g id="Group_1851" data-name="Group 1851">
        <path id="Path_3687" data-name="Path 3687" d="M292.48,407.51,291,294.92l-2.94,4.86,1.41,107.72h3.01Z" fill="#63c1c5"/>
      </g>
      <g id="Group_1852" data-name="Group 1852">
        <path id="Path_3688" data-name="Path 3688" d="M409.78,337.16l.95,72.66h3l-.95-72.12C411.78,337.57,410.77,337.39,409.78,337.16Z" fill="#63c1c5"/>
      </g>
      <path id="Path_3714" data-name="Path 3714" d="M183.47,198.95,188.38,212h86.45l-5.88-13.05Z" fill="#fff"/>
      <g id="Group_1868" data-name="Group 1868" transform="translate(-187.452 9.182)">
        <path id="Path_3715" data-name="Path 3715" d="M497.45,300.11a4.948,4.948,0,0,0-.21,3.55l.65,4.61.79.53,2.95,1.22a3.158,3.158,0,0,1,0-1.85l1.3-4.77s2.01-8.05-3.45-7.71c.03-6.56-1.8-5.47-1.8-5.47l-.13,5.67Z" fill="#f8b68f"/>
        <path id="Path_3716" data-name="Path 3716" d="M483.85,316.06s3.82,14.58,7.08,14.84,6.65-23.1,6.65-23.1l4.43.54s1.72,33.6-8.22,34.21-11.25-6.82-11.25-6.82Z" fill="#ffdb71"/>
        <path id="Path_3717" data-name="Path 3717" d="M483.43,355.93h-26v-39.5c7.43-11.34,16.69-8.25,16.69-8.25s8.42.15,9.73,7.87C483.85,321.64,483.43,355.93,483.43,355.93Z" fill="#f7a605"/>
        <g id="Group_1863" data-name="Group 1863">
          <path id="Path_3718" data-name="Path 3718" d="M471.08,302.94l-.39,5.58.18.17a4.851,4.851,0,0,0,6.58.09h0l.09-4.2Z" fill="#f4a086"/>
        </g>
        <g id="Group_1864" data-name="Group 1864">
          <path id="Path_3719" data-name="Path 3719" d="M469.03,291.27l.47,9.23a1.42,1.42,0,0,1,1.28,1.81,1.572,1.572,0,0,1,.15.68,10.6,10.6,0,0,0,8.22,1.92c5.84-1.12,2.32-12.41,2.32-12.41Z" fill="#f8b68f"/>
          <path id="Path_3720" data-name="Path 3720" d="M466.1,298.2a5.681,5.681,0,0,0-1.48-2.56c-3.31-2.86-.35-4.95.7-5.62,1.16-.75.93-2.85,2.44-4.03,2.29-1.8,4.51.07,5.98-.21s2.38-2.23,4.52-1.19,1.9,2.71,2.59,3.42,1.94-1.25,4.03.99c3.17,3.4-3.05,4.85-3.05,4.85a11.273,11.273,0,0,1-7.91-.36,1.47,1.47,0,0,0-1.74.43c-1.07,1.47-1.09,9.17-1.09,9.17l-1.5-1.25C469.57,301.85,466.3,301.3,466.1,298.2Z" fill="#212b53"/>
          <path id="Path_3721" data-name="Path 3721" d="M469.6,298.96a1.417,1.417,0,1,0,.77-1.85A1.417,1.417,0,0,0,469.6,298.96Z" fill="#f8b68f"/>
        </g>
        <g id="Group_1865" data-name="Group 1865">
          <path id="Path_3722" data-name="Path 3722" d="M477.54,430.4s1.47,2.03,8.37,3.79c1.52.39,3.16.65,3.16,3.16h-6.82l-6.97-1.21v1.21h-3.77s-1.05-6.16,1.15-6.95Z" fill="#212b53"/>
          <path id="Path_3723" data-name="Path 3723" d="M477.9,425.97l-.36,4.42h0a4.255,4.255,0,0,1-4.61.15l-.26-.15v-4.42Z" fill="#f8b68f"/>
        </g>
        <g id="Group_1866" data-name="Group 1866">
          <path id="Path_3724" data-name="Path 3724" d="M458.17,430.4s1.47,2.03,8.37,3.79c1.52.39,3.16.65,3.16,3.16h-6.82l-6.97-1.21v1.21h-3.77s-1.05-6.16,1.15-6.95Z" fill="#212b53"/>
          <path id="Path_3725" data-name="Path 3725" d="M458.52,425.97l-.36,4.42h0a4.255,4.255,0,0,1-4.61.15l-.26-.15v-4.42Z" fill="#f8b68f"/>
        </g>
        <path id="Path_3726" data-name="Path 3726" d="M457.44,316.43s-7.79,17.99,2.15,27.18,23.45,7.63,23.45,7.63v-5.18s-12.2-1.03-16.11-9.19,1.56-15.22,1.56-15.22" fill="#f7a605"/>
        <path id="Path_3727" data-name="Path 3727" d="M482.24,350.52l6.22.13c2.53-.14,4.21-3.91,4.63-6.72a.571.571,0,0,0-.75-.62,78.866,78.866,0,0,0-8.95,3.53Z" fill="#f8b68f"/>
        <path id="Path_3728" data-name="Path 3728" d="M483.43,355.93c7.76,21.9-4.37,70.39-4.37,70.39h-6.91s3.26-68.76-5.74-70.39Z" fill="#00666a"/>
        <path id="Path_3729" data-name="Path 3729" d="M465.54,331.42a14.027,14.027,0,0,0,1.39,5.44c3.91,8.16,16.75,9.24,16.75,9.24v5.23s-14.14,1.46-24.08-7.73c-3.61-3.33-4.87-7.82-5.03-12.19h10.97Z" fill="#ffdb71"/>
        <g id="Group_1867" data-name="Group 1867">
          <path id="Path_3730" data-name="Path 3730" d="M465.6,332.21c-.27-.12-.55-.24-.82-.37a16.739,16.739,0,0,1,3.1-10.63l.61.49A15.758,15.758,0,0,0,465.6,332.21Z" fill="#f18813"/>
        </g>
        <path id="Path_3731" data-name="Path 3731" d="M498.64,300.8s-1.43-.43-1.66-3.05-1.46-1.81-1.46-1.81.64,10.32,2.29,10.71S498.64,300.8,498.64,300.8Z" fill="#f8b68f"/>
        <path id="Path_3732" data-name="Path 3732" d="M475.78,355.93c2.11,26.85-15.03,70.39-15.03,70.39h-8.21s5.58-27.84,5.69-53.97a140.416,140.416,0,0,0-.81-16.42Z" fill="#01898c"/>
      </g>
      <g id="Group_1876" data-name="Group 1876">
        <g id="Group_1875" data-name="Group 1875">
          <g id="Group_1869" data-name="Group 1869">
            <path id="Path_3733" data-name="Path 3733" d="M221.11,228.6l.71,4.26h0a4.1,4.1,0,0,1-4.45.15l-.25-.15-1.05-4.26Z" fill="#f8b68f"/>
          </g>
          <path id="Path_3734" data-name="Path 3734" d="M186.95,130c3.79,12.5,16.49,31.68,16.49,31.68l-10.04-4.11-7.09-16.39S183.16,117.5,186.95,130Z" fill="#b0d9c8"/>
          <path id="Path_3735" data-name="Path 3735" d="M214.22,180.18l7.92,48.81H215.1s-15.8-43.91-17.46-56.82c0-7.31,15.98,0,15.98,0Z" fill="#00666a"/>
          <g id="Group_1871" data-name="Group 1871">
            <path id="Path_3736" data-name="Path 3736" d="M188.02,110.28l-2.63,6.8-5.68-4.12,3.83-8.01Z" fill="#f4a086"/>
            <g id="Group_1870" data-name="Group 1870">
              <path id="Path_3737" data-name="Path 3737" d="M190.16,111.41a3.846,3.846,0,0,0,2.22-.06c3.3-3.15,2.49-13.66,2.49-13.66l-3.68-2.55-5.8,2.13-1.68,6.58a5.521,5.521,0,0,0,1.33,5.06h0A10.762,10.762,0,0,0,190.16,111.41Z" fill="#f8b68f"/>
            </g>
            <path id="Path_3738" data-name="Path 3738" d="M186.4,99.48a2.269,2.269,0,0,1,2.85-1.13,18.107,18.107,0,0,0,2.72.83c2.28.48,6.52.44,7.25-3.03s-3.78-3.17-3.78-3.17l-5.98.41a11.06,11.06,0,0,1-5.16-.95c-1.44-.63-2.72.71-3.02,1.6-.67,1.96.03,5.3.62,7.44a10.772,10.772,0,0,0,1.65,3.45h0Z" fill="#212b53"/>
            <path id="Path_3739" data-name="Path 3739" d="M183.04,100.97a1.752,1.752,0,0,1,2.08.63c.55.69.51,1.53-.1,1.87a1.752,1.752,0,0,1-2.08-.63C182.4,102.15,182.44,101.31,183.04,100.97Z" fill="#f8b68f"/>
          </g>
          <g id="Group_1872" data-name="Group 1872">
            <path id="Path_3740" data-name="Path 3740" d="M221.95,232.41s.02,4.53,9.12,7.25c1.87.56,1.26,1.11,1.61,1.9H222.21l-4.1-4.61-1.28,1.1-2.96-2.91s.51-4.2,2.77-4.24C218.5,231.53,221.95,232.41,221.95,232.41Z" fill="#212b53"/>
            <path id="Path_3741" data-name="Path 3741" d="M196.09,227.28l-1.7,3.92h0a4.115,4.115,0,0,1-4.26-1.29l-.19-.22,1.37-4.03Z" fill="#f8b68f"/>
          </g>
          <path id="Path_3742" data-name="Path 3742" d="M186.64,115.17s.72-1.12-5.71-4.44c-9.7,9.7-12.89,46.84-12.89,46.84h25.37C194.26,136.38,186.64,115.17,186.64,115.17Z" fill="#ffd247"/>
          <path id="Path_3743" data-name="Path 3743" d="M211.7,156.57a1.109,1.109,0,0,0-.53-1.22l-4.14-2.4a4.829,4.829,0,0,0-3.39-.55l-4.48.18-.59.71-.93,3.96,1.43-.35,2.85.08s5.37,4.99,8.03.65c.11,4.62,1.46,4.26,1.46,4.26Z" fill="#f8b68f"/>
          <path id="Path_3744" data-name="Path 3744" d="M168.04,157.57l-.38,3.15c0,.04-.01.08-.01.13a12.413,12.413,0,0,0,9.1,13.21,112,112,0,0,0,26.12,4.62c-9.57,12.28-12.21,46.76-12.21,46.76l6.16,2.24,23.81-56.7a6.262,6.262,0,0,0-4.47-8.55l-22.74-4.84H168.04Z" fill="#01898c"/>
          <path id="Path_3745" data-name="Path 3745" d="M183.9,127.31a50.832,50.832,0,0,0-7.5,8.76,3.31,3.31,0,0,0,.3,3.93c5.28,6.08,24.11,11.93,24.11,11.93l-1.22,6.87s-26.71-5.25-36.18-14.75c-9.71-9.74,15.39-30.08,15.39-30.08" fill="#ffd247"/>
          <g id="Group_1873" data-name="Group 1873">
            <path id="Path_3746" data-name="Path 3746" d="M176.71,136.27a2.918,2.918,0,0,0,.26,3.48c2.41,2.78,8.84,5.74,14.45,7.89-.01.35.01.37,0,.78-5.89-2.21-12.39-5.14-15.02-8.17a3.655,3.655,0,0,1-.33-4.37,51.632,51.632,0,0,1,7.57-8.84l.51.56A50.362,50.362,0,0,0,176.71,136.27Z" fill="#f7a605"/>
            <path id="Path_3747" data-name="Path 3747" d="M168.97,147.86c10.26,5.54,25.29,9.5,30.66,10.62a4.607,4.607,0,0,1-.16.73c-5.17-1.06-20.06-4.88-30.6-10.48C168.89,148.44,168.93,148.13,168.97,147.86Z" fill="#f7a605"/>
          </g>
          <g id="Group_1874" data-name="Group 1874">
            <path id="Path_3748" data-name="Path 3748" d="M221.68,164.85l7.91-28.27-1.45-.41-7.54,26.96-22.7-3.94-.26,1.48Z" fill="#63c1c5"/>
          </g>
        </g>
        <path id="Path_3749" data-name="Path 3749" d="M194.77,230.33s-.36,4.57,8.74,7.29c1.87.56,1.26,1.11,1.61,1.9H194.65l-4.1-4.61-1.28,1.1-2.96-2.9s1.38-4.2,3.63-4.24C191.8,229.49,194.77,230.33,194.77,230.33Z" fill="#212b53"/>
      </g>
      <g id="Group_1881" data-name="Group 1881" transform="translate(-205.28 10.54)">
        <g id="Group_1877" data-name="Group 1877">
          <path id="Path_3750" data-name="Path 3750" d="M591.3,428.54a3.007,3.007,0,0,1,1.6,2.31c0,1.46.23,4.82.23,4.82l-1.45.26-.51-3.09c-.04-.2-2.59,3.26-4.33,5l-6.39.12s-.88-1.99,3.49-3.47S591.3,428.54,591.3,428.54Z" fill="#00666a"/>
          <path id="Path_3751" data-name="Path 3751" d="M586.1,403.02a28.3,28.3,0,0,0-.38-3.9,24.073,24.073,0,0,0-3.19-8.02c-1.57-.58-3.07-1.31-4.67-1.94a42.871,42.871,0,0,0-5.66-1.61c.08.22.16.43.24.65,9.36,24.71,14.6,35.93,15.42,38.58a3.275,3.275,0,0,1,.2,1.23c-.14,1.28-.73,4.02-4.49,6.63,3.99.99,7.73-6.09,7.73-6.09S586.3,411.52,586.1,403.02Z" fill="#fccd98"/>
        </g>
        <path id="Path_3752" data-name="Path 3752" d="M566.81,303.1l.42,6.71,6.56-1.36-.79-9.12Z" fill="#f4a086"/>
        <path id="Path_3753" data-name="Path 3753" d="M565.29,303.17a3.885,3.885,0,0,1-2.31-.6c-2.76-4.4.38-16.28.38-16.28l10.03,1.8.32,7.96a6.686,6.686,0,0,1-2.51,5.49h0A10.8,10.8,0,0,1,565.29,303.17Z" fill="#f8b68f"/>
        <path id="Path_3754" data-name="Path 3754" d="M571.75,430.88a2.923,2.923,0,0,1,1.13,2.47c-.25,1.38-.61,4.62-.61,4.62h-1.42l.04-3.02c0-.2-3.04,3.02-3.56,3.02h-7.51s-.5-2.04,3.91-2.69S571.75,430.88,571.75,430.88Z" fill="#00666a"/>
        <g id="Group_1878" data-name="Group 1878">
          <path id="Path_3755" data-name="Path 3755" d="M575.56,405.38a27.452,27.452,0,0,0,1-3.79,41.3,41.3,0,0,0,.29-10.67c-1.27-1.09-2.93-.25-4.21-1.4a41.24,41.24,0,0,0-4.76-3.47v.69c.22,26.42,1.24,38.76,1.08,41.53-.02.42-1.28,5.88-5.7,7.03,3.39,2.31,8.48-4.42,8.48-4.42S572.79,413.42,575.56,405.38Z" fill="#f8b68f"/>
        </g>
        <path id="Path_3756" data-name="Path 3756" d="M567.16,308.67l-6.3,10.29a8.027,8.027,0,0,0-.58,5.24l4,17.56a15.461,15.461,0,0,1,.38,3.1l.96,46.05h20.11a143.183,143.183,0,0,1-3.83-20.82c-1.28-11.73,2.46-16.84,1.42-21.97a25.1,25.1,0,0,0-4.95-10.02,9.737,9.737,0,0,1-2.08-5.87c-.21-8.71,8.91-32.75.2-26.9S567.16,308.67,567.16,308.67Z" fill="#01898c"/>
        <path id="Path_3757" data-name="Path 3757" d="M566.81,334.71l-.47,1.69a9.464,9.464,0,0,1-1.36,2.55c-2.22,3.7-9.69,12.75-9.69,12.75l-6.04,3.42s.12.87,1.49.62a6.228,6.228,0,0,0,2.37-1s.25.99-1,2.99c-.93,1.49-3.92,4.03-1.87,4.48a34.547,34.547,0,0,0,4.16-2.3,4.038,4.038,0,0,0,2.02-2.84l.55-3.2,12.82-10.48a9.736,9.736,0,0,0,3.07-4.45l.04-.13Z" fill="#f8b68f"/>
        <path id="Path_3758" data-name="Path 3758" d="M531.95,324.26a5.687,5.687,0,0,1-3.13-1.1c-1.6-.98-4.27-4.04-4.84-2.01.82,1.89,1.56,4.23,1.56,4.23.61,1.09,2.55,1.86,3.86,2.11l4.15.25s1.49-1.5,1.57-1.56l-.43-.75A9.567,9.567,0,0,1,531.95,324.26Z" fill="#f8b68f"/>
        <g id="Group_1879" data-name="Group 1879">
          <path id="Path_3759" data-name="Path 3759" d="M573.09,339.32l-6.62-4.46,2.52-17.62.62.09-2.46,17.23,5.58,3.76,4.11-14.03.6.18Z" fill="#00666a"/>
        </g>
        <path id="Path_3760" data-name="Path 3760" d="M570.42,291.02a10.186,10.186,0,0,1-5.41,1.25,6.867,6.867,0,0,1-5.3-3.49c-.7-1.52-.86-3.09,1.48-4.86a3.654,3.654,0,0,1,4.45.33,1.691,1.691,0,0,0,2.23.06,10.275,10.275,0,0,1,6.79-2.38c3.49,0,3.39,3.38,2.86,5.84a3.525,3.525,0,0,0,1.56,3.76c2.07,1.28,4.71,3.37,4.16,5.46a12.366,12.366,0,0,1-2.32,4.35,3.091,3.091,0,0,0-.03,3.77c1.29,1.7,2.79,4.16,2.35,5.95a20.645,20.645,0,0,1-2.7,5.42,3.357,3.357,0,0,0,0,3.64,4.51,4.51,0,0,1,.71,3.39,8,8,0,0,1-1.27,2.74,2.19,2.19,0,0,1-3.75-.29c-2.28-4.61-6.28-14.05-4.89-21.25.7-3.61,1.65-9.98,1.65-9.98S574.03,289.48,570.42,291.02Z" fill="#212b53"/>
        <path id="Path_3761" data-name="Path 3761" d="M565.21,330l-7.68,3.98a4.15,4.15,0,0,1-3.11.3l-21.12-6.67v-2.67l20.58,2.5,6.44-3.42Z" fill="#f8b68f"/>
        <path id="Path_3762" data-name="Path 3762" d="M574.31,292.9a1.739,1.739,0,0,0-2.32.23,1.506,1.506,0,0,0-.31,2.17,1.739,1.739,0,0,0,2.32-.23A1.5,1.5,0,0,0,574.31,292.9Z" fill="#f8b68f"/>
        <path id="Path_3763" data-name="Path 3763" d="M566.81,329.24l-2.13-13.13-9.12,10.48,2.5,8.15,8.69-4.49C566.49,329.25,566.75,330.25,566.81,329.24Z" fill="#01898c"/>
        <g id="Group_1880" data-name="Group 1880">
          <path id="Path_3764" data-name="Path 3764" d="M563.02,336.24a5.362,5.362,0,0,1,.49-.34l-2.87-11.78a7.712,7.712,0,0,1,.53-4.97l6.22-10.18c-.2-.14-.14-.12-.24-.3-.02-.04-.28-.05-.34-.06l-6.29,10.19a8.444,8.444,0,0,0-.6,5.49" fill="#63c1c5"/>
        </g>
        <path id="Path_3765" data-name="Path 3765" d="M530.92,324.58a1.764,1.764,0,0,1-.31.07,6.845,6.845,0,0,1,.37.71c.77.6,1.52,1.23,2.28,1.85.31-.52.75-1.25.79-1.29l-4.14-5.07s-.84.27-.36,1.58A5.964,5.964,0,0,0,530.92,324.58Z" fill="#f8b68f"/>
      </g>
      <g id="Group_1892" data-name="Group 1892">
        <g id="Group_1890" data-name="Group 1890">
          <path id="Path_3796" data-name="Path 3796" d="M418.01,98.54,391.82,84.08l-13.37-2.67-10.1,1.48Z" fill="url(#linear-gradient-3)"/>
          <path id="Path_3797" data-name="Path 3797" d="M418.01,98.54,368.97,85.93l-.62-3.04" fill="#b0d9c8"/>
          <path id="Path_3798" data-name="Path 3798" d="M367.57,94.34l.06.11,2.06,7.61,48.19-3.52Z" fill="#63c1c5"/>
          <path id="Path_3799" data-name="Path 3799" d="M358.21,89.88l6.99-5.68,52.49,14.25-45.18-1.34Z" fill="url(#linear-gradient-4)"/>
        </g>
        <g id="Group_1891" data-name="Group 1891">
          <path id="Path_3800" data-name="Path 3800" d="M247.9,187.04a35.634,35.634,0,0,0,4.72-2.05.719.719,0,0,1,.96.3.71.71,0,0,1-.3.96,39.887,39.887,0,0,1-4.9,2.13c-.6.21-1.21.41-1.82.59a.707.707,0,0,1-.63-.11.76.76,0,0,1-.26-.37.718.718,0,0,1,.48-.89C246.73,187.44,247.32,187.24,247.9,187.04Z" fill="#63c1c5"/>
          <path id="Path_3801" data-name="Path 3801" d="M343.88,84.57c2.22.29,4.54.65,7.08,1.12a.712.712,0,0,1-.26,1.4c-2.51-.46-4.8-.83-7-1.11a.739.739,0,0,1-.33-.13.714.714,0,0,1,.51-1.28Z" fill="#63c1c5"/>
          <path id="Path_3802" data-name="Path 3802" d="M331.99,85.12a.715.715,0,0,1,.42-1.29c2.29-.02,4.7.08,7.18.28a.713.713,0,0,1-.12,1.42c-2.44-.2-4.81-.3-7.05-.28A.664.664,0,0,1,331.99,85.12Z" fill="#63c1c5"/>
          <path id="Path_3803" data-name="Path 3803" d="M261.65,178.45a.712.712,0,0,1,1.01.01.721.721,0,0,1-.01,1.01,40.369,40.369,0,0,1-5.62,4.57.705.705,0,0,1-.82-.02.977.977,0,0,1-.17-.18.718.718,0,0,1,.19-.99A38.048,38.048,0,0,0,261.65,178.45Z" fill="#63c1c5"/>
          <path id="Path_3804" data-name="Path 3804" d="M264.59,176.37a.7.7,0,0,1-.1-1q.6-.735,1.17-1.5a38.754,38.754,0,0,0,2.74-4.28.709.709,0,0,1,.97-.28.73.73,0,0,1,.29.97,38.018,38.018,0,0,1-2.84,4.45c-.39.53-.8,1.05-1.22,1.56a.7.7,0,0,1-.97.12Z" fill="#63c1c5"/>
          <path id="Path_3805" data-name="Path 3805" d="M270.58,166.72a.377.377,0,0,1-.15-.09.7.7,0,0,1-.23-.84,49.241,49.241,0,0,0,2.17-6.67.711.711,0,1,1,1.38.34,50.185,50.185,0,0,1-2.23,6.86A.717.717,0,0,1,270.58,166.72Z" fill="#63c1c5"/>
          <path id="Path_3806" data-name="Path 3806" d="M289.47,105.93c-.59.72-1.17,1.46-1.73,2.21-.84,1.13-1.64,2.31-2.38,3.49a.712.712,0,0,1-.98.22c-.02-.01-.03-.02-.05-.03a.707.707,0,0,1-.18-.95c.76-1.21,1.58-2.42,2.44-3.58.57-.77,1.16-1.53,1.77-2.27a.678.678,0,0,1,1-.1A.709.709,0,0,1,289.47,105.93Z" fill="#63c1c5"/>
          <path id="Path_3807" data-name="Path 3807" d="M283.26,115.29a51.4,51.4,0,0,0-2.82,6.43.713.713,0,0,1-.91.43.524.524,0,0,1-.18-.1.7.7,0,0,1-.25-.81,54.326,54.326,0,0,1,2.9-6.61.71.71,0,0,1,.96-.3A.7.7,0,0,1,283.26,115.29Z" fill="#63c1c5"/>
          <path id="Path_3808" data-name="Path 3808" d="M297.43,97.99a59.957,59.957,0,0,0-5.16,4.78.717.717,0,0,1-.94.08c-.02-.02-.05-.04-.07-.06a.721.721,0,0,1-.02-1.01,59.7,59.7,0,0,1,5.28-4.9.7.7,0,0,1,1,.1A.714.714,0,0,1,297.43,97.99Z" fill="#63c1c5"/>
          <path id="Path_3809" data-name="Path 3809" d="M310.56,89.88a.722.722,0,0,1-.94-.36.711.711,0,0,1,.36-.94,56.156,56.156,0,0,1,6.77-2.49.715.715,0,1,1,.41,1.37A53.931,53.931,0,0,0,310.56,89.88Z" fill="#63c1c5"/>
          <path id="Path_3810" data-name="Path 3810" d="M275.46,144.53a.65.65,0,0,1-.34-.14.7.7,0,0,1-.28-.65l.1-.9c.24-2.07.47-4.13.74-6.19a.711.711,0,1,1,1.41.19c-.27,2.05-.51,4.11-.74,6.17l-.1.9A.709.709,0,0,1,275.46,144.53Z" fill="#63c1c5"/>
          <path id="Path_3811" data-name="Path 3811" d="M300.79,95.43a.7.7,0,0,1-.83-.01.809.809,0,0,1-.16-.16.706.706,0,0,1,.17-.99,58.79,58.79,0,0,1,6.13-3.79.707.707,0,0,1,.96.29.7.7,0,0,1-.29.96A55.976,55.976,0,0,0,300.79,95.43Z" fill="#63c1c5"/>
          <path id="Path_3812" data-name="Path 3812" d="M275.13,147.37a.713.713,0,0,1,.62.8c-.35,2.77-.69,5.03-1.08,7.09a.713.713,0,0,1-.83.57.592.592,0,0,1-.29-.13.724.724,0,0,1-.28-.7c.38-2.03.72-4.26,1.07-7A.7.7,0,0,1,275.13,147.37Z" fill="#63c1c5"/>
          <path id="Path_3813" data-name="Path 3813" d="M242.07,188.62a.722.722,0,0,1,.84.56.709.709,0,0,1-.56.84,56.766,56.766,0,0,1-7.15.92.692.692,0,0,1-.47-.14.742.742,0,0,1-.29-.52.714.714,0,0,1,.66-.76A58.194,58.194,0,0,0,242.07,188.62Z" fill="#63c1c5"/>
          <path id="Path_3814" data-name="Path 3814" d="M278.68,124.87a.7.7,0,0,1,.5.87c-.56,2.1-1.04,4.35-1.47,6.9a.714.714,0,0,1-.82.59.663.663,0,0,1-.31-.13.7.7,0,0,1-.28-.69,71.5,71.5,0,0,1,1.5-7.03A.721.721,0,0,1,278.68,124.87Z" fill="#63c1c5"/>
          <path id="Path_3815" data-name="Path 3815" d="M325.6,84.26c.83-.1,1.67-.18,2.5-.24a.712.712,0,1,1,.1,1.42c-.81.06-1.63.14-2.44.24-1.51.18-3.03.43-4.52.75a.749.749,0,0,1-.57-.12.662.662,0,0,1-.27-.42.7.7,0,0,1,.55-.84A43.834,43.834,0,0,1,325.6,84.26Z" fill="#63c1c5"/>
        </g>
      </g>
      <g id="Group_1899" data-name="Group 1899">
        <g id="Group_1893" data-name="Group 1893">
          <path id="Path_3816" data-name="Path 3816" d="M643.85,160.76l4.41,8.67L639,167.32l-31.67-9.98Z" fill="#b0d9c8"/>
          <path id="Path_3817" data-name="Path 3817" d="M648.26,169.43l-15.73-.98,3.85-1.96Z" fill="#63c1c5"/>
          <path id="Path_3818" data-name="Path 3818" d="M643.85,160.76l2.75-8.45-39.27,5.03Z" fill="url(#linear-gradient-5)"/>
          <path id="Path_3819" data-name="Path 3819" d="M607.33,157.34,639,167.32l-4.72,12.17Z" fill="url(#linear-gradient-6)"/>
        </g>
        <g id="Group_1898" data-name="Group 1898">
          <g id="Group_1894" data-name="Group 1894">
            <path id="Path_3820" data-name="Path 3820" d="M644.78,178.15a.723.723,0,0,0,.22-.17.732.732,0,0,0-.07-1.04,20.4,20.4,0,0,0-3.11-2.24.737.737,0,1,0-.75,1.27,20.132,20.132,0,0,1,2.89,2.08A.716.716,0,0,0,644.78,178.15Z" fill="#63c1c5"/>
          </g>
          <g id="Group_1896" data-name="Group 1896">
            <g id="Group_1895" data-name="Group 1895">
              <path id="Path_3821" data-name="Path 3821" d="M633.27,259.01a.736.736,0,0,1,.26-1.01,21.025,21.025,0,0,0,5.43-4.7.743.743,0,0,1,1.04-.1.734.734,0,0,1,.1,1.04,22.037,22.037,0,0,1-5.82,5.03.076.076,0,0,1-.04.02A.742.742,0,0,1,633.27,259.01Zm8.43-8.3a.738.738,0,0,1-.28-1.01,26.436,26.436,0,0,0,2.68-6.73.742.742,0,0,1,1.44.36,28.014,28.014,0,0,1-2.83,7.11.669.669,0,0,1-.31.29A.727.727,0,0,1,641.7,250.71Zm3.77-11.25a.747.747,0,0,1-.69-.79l.02-.33a34.166,34.166,0,0,0-.36-6.95.738.738,0,0,1,1.46-.22,35.743,35.743,0,0,1,.38,7.26l-.02.36a.757.757,0,0,1-.4.61A1,1,0,0,1,645.47,239.46Zm-1.02-11.86a.733.733,0,0,1-.9-.53,54.525,54.525,0,0,0-2.4-6.97.742.742,0,0,1,1.37-.57,55.462,55.462,0,0,1,2.47,7.16.741.741,0,0,1-.38.85A.638.638,0,0,1,644.45,227.6Zm-4.16-11.19a.737.737,0,0,1-.99-.34c-.09-.19-.18-.37-.28-.56a24.816,24.816,0,0,1-2.39.8.74.74,0,0,1-.91-.51.733.733,0,0,1,.51-.91,21.723,21.723,0,0,0,2.11-.7c-.77-1.47-1.61-3-2.57-4.65a.729.729,0,0,1,.27-1.01.737.737,0,0,1,1.01.27c.99,1.71,1.87,3.29,2.66,4.81a21.5,21.5,0,0,0,3.08-1.72.742.742,0,1,1,.83,1.23,24.285,24.285,0,0,1-3.23,1.81c.08.16.16.32.24.49a.748.748,0,0,1-.34.99Zm5.84-6.22a.742.742,0,0,1-.01-1.05,18.874,18.874,0,0,0,2.7-3.51,19.46,19.46,0,0,0,1.23-2.46.742.742,0,0,1,1.37.57,21.233,21.233,0,0,1-1.32,2.66,20.234,20.234,0,0,1-2.91,3.79.622.622,0,0,1-.19.14A.8.8,0,0,1,646.13,210.19Zm-14.05,6.94a23.267,23.267,0,0,1-7.66-.6.742.742,0,1,1,.36-1.44,21.676,21.676,0,0,0,7.17.56.746.746,0,0,1,.8.67.727.727,0,0,1-.4.72A.513.513,0,0,1,632.08,217.13Zm19.75-17.25a.741.741,0,0,1-.6-.86,22.56,22.56,0,0,0,.07-7.2.738.738,0,0,1,1.46-.22,24.1,24.1,0,0,1-.07,7.68.721.721,0,0,1-.39.53A.748.748,0,0,1,651.83,199.88ZM620.08,214.9c-.6-.31-1.18-.65-1.74-1.01a15.744,15.744,0,0,1-4.18-4,.738.738,0,1,1,1.2-.86,14.344,14.344,0,0,0,3.79,3.62,16.883,16.883,0,0,0,1.61.93.744.744,0,0,1,.32,1,.76.76,0,0,1-.32.32A.713.713,0,0,1,620.08,214.9Zm13.38-9.16a27.355,27.355,0,0,0-4.57-5.64.736.736,0,0,1,.99-1.09,28.946,28.946,0,0,1,4.82,5.93.741.741,0,0,1-.22,1.02.434.434,0,0,1-.07.04A.739.739,0,0,1,633.46,205.74Zm17.75-17.68a.737.737,0,0,1-.94-.46,23.893,23.893,0,0,0-1.29-3.04,22.792,22.792,0,0,0-2.08-3.34.743.743,0,0,1,1.19-.89,23.9,23.9,0,0,1,2.22,3.56,24.831,24.831,0,0,1,1.37,3.23.748.748,0,0,1-.36.9C651.28,188.03,651.24,188.05,651.21,188.06Zm-38.2,18.11a.739.739,0,0,1-.9-.54,8.16,8.16,0,0,1,.61-5.9,7.433,7.433,0,0,1,1.26-1.74.742.742,0,0,1,1.06,1.04,6.008,6.008,0,0,0-1.01,1.4,6.684,6.684,0,0,0-.48,4.85.735.735,0,0,1-.38.84A1.422,1.422,0,0,0,613.01,206.17Zm12.37-8.45a10.515,10.515,0,0,0-6.81-.64.742.742,0,1,1-.36-1.44,11.983,11.983,0,0,1,7.8.73.739.739,0,0,1,.36.98.683.683,0,0,1-.34.35A.71.71,0,0,1,625.38,197.72Z" fill="#63c1c5"/>
            </g>
          </g>
          <g id="Group_1897" data-name="Group 1897">
            <path id="Path_3822" data-name="Path 3822" d="M630.07,261.1a.754.754,0,0,0,.38-.86.74.74,0,0,0-.91-.51,16.451,16.451,0,0,1-3.48.59.741.741,0,1,0,.08,1.48,17.558,17.558,0,0,0,3.8-.64C629.99,261.14,630.03,261.12,630.07,261.1Z" fill="#63c1c5"/>
          </g>
        </g>
      </g>
    </g>
    <g id="Group_2351" data-name="Group 2351" transform="translate(112.864 901.969)">
      <g id="Group_2081" data-name="Group 2081" transform="translate(519.109 417.479)">
        <g id="Group_2068" data-name="Group 2068" transform="translate(0 94.516)">
          <path id="Path_4136" data-name="Path 4136" d="M239.358,318.7c-9.871-3.6-181.854,0-181.854,0-8.831,0-16.934,9.679-16.934,18.338s8.1,18.338,16.934,18.338c0,0,168.159,6.925,181.938.2C237.091,340.862,237.429,327.534,239.358,318.7Z" transform="translate(-36.155 -315.101)" fill="#f8f8f8"/>
          <g id="Group_2062" data-name="Group 2062" transform="translate(8.163 6.958)">
            <rect id="Rectangle_1663" data-name="Rectangle 1663" width="194.026" height="0.863" fill="#63c1c5"/>
          </g>
          <g id="Group_2063" data-name="Group 2063" transform="translate(4.948 12.432)">
            <path id="Path_4137" data-name="Path 4137" d="M238.127,329.68H41.2v.863H237.924C237.983,330.252,238.051,329.962,238.127,329.68Z" transform="translate(-41.2 -329.68)" fill="#63c1c5"/>
          </g>
          <g id="Group_2064" data-name="Group 2064" transform="translate(2.47 20.229)">
            <rect id="Rectangle_1664" data-name="Rectangle 1664" width="198.974" height="0.863" fill="#63c1c5"/>
          </g>
          <g id="Group_2065" data-name="Group 2065" transform="translate(2.47 24.118)">
            <rect id="Rectangle_1665" data-name="Rectangle 1665" width="198.974" height="0.863" fill="#63c1c5"/>
          </g>
          <g id="Group_2066" data-name="Group 2066" transform="translate(4.365 30.397)">
            <path id="Path_4138" data-name="Path 4138" d="M238.148,351.34H40.51v.863H238.275C238.224,351.912,238.182,351.63,238.148,351.34Z" transform="translate(-40.51 -351.34)" fill="#63c1c5"/>
          </g>
          <g id="Group_2067" data-name="Group 2067" transform="translate(9.567 37.969)">
            <path id="Path_4139" data-name="Path 4139" d="M240.068,360.47H46.66c.195.282.381.572.55.863H240.237C240.17,361.051,240.111,360.76,240.068,360.47Z" transform="translate(-46.66 -360.47)" fill="#63c1c5"/>
          </g>
          <path id="Path_4140" data-name="Path 4140" d="M56.7,354.965c-8.831,0-16.934-9.679-16.934-18.338s8.1-18.338,16.934-18.338c0,0,171.3-3.583,181.786-.025.44-2.256.787-3.575.787-3.575H57.723A22.221,22.221,0,0,0,35.35,336.627h0a22.221,22.221,0,0,0,22.373,21.937s172.727,3.906,181.549,0c0-.332-.279-1.543-.66-3.392C224.664,361.882,56.7,354.965,56.7,354.965Z" transform="translate(-35.35 -314.69)" fill="#043c5e"/>
        </g>
        <g id="Group_2069" data-name="Group 2069" transform="translate(12.688 45.259)">
          <path id="Path_4141" data-name="Path 4141" d="M216.9,305.249H62.387a11.958,11.958,0,0,1-12.037-11.8V267.122a11.958,11.958,0,0,1,12.037-11.8H216.91a11.958,11.958,0,0,1,12.037,11.8v26.325A11.965,11.965,0,0,1,216.9,305.249Z" transform="translate(-50.35 -255.303)" fill="#043c5e"/>
          <path id="Path_4142" data-name="Path 4142" d="M80.736,255.3c-9.787,24.973,1.083,49.937,1.083,49.937h22.407s-8.2-28.539,1.336-49.937Z" transform="translate(-54.404 -255.3)" fill="#01898c"/>
          <path id="Path_4143" data-name="Path 4143" d="M203.506,255.3c-9.787,24.973,1.083,49.937,1.083,49.937H227s-8.2-28.539,1.336-49.937Z" transform="translate(-73.326 -255.3)" fill="#63c1c5"/>
        </g>
        <g id="Group_2080" data-name="Group 2080" transform="translate(16.317)">
          <g id="Group_2079" data-name="Group 2079" transform="translate(47.284 2.878)">
            <path id="Path_4144" data-name="Path 4144" d="M231.254,244.657s-7.469-9.845-7.469-20.486,7.055-19.208,7.055-19.208V204.2H132.321c-11.978,0-21.781,8.568-21.781,19.043v3.367c0,10.475,9.8,19.043,21.781,19.043H230.84l.414-.257Z" transform="translate(-110.54 -204.2)" fill="#fff"/>
            <g id="Group_2078" data-name="Group 2078" clip-path="url(#clip-path)">
              <g id="Group_2070" data-name="Group 2070" transform="translate(27.178 4.412)">
                <rect id="Rectangle_1666" data-name="Rectangle 1666" width="194.026" height="0.863" fill="#63c1c5"/>
              </g>
              <g id="Group_2071" data-name="Group 2071" transform="translate(23.964 9.886)">
                <path id="Path_4145" data-name="Path 4145" d="M335.8,216.12H138.87v.863H335.594C335.645,216.692,335.721,216.4,335.8,216.12Z" transform="translate(-138.87 -216.12)" fill="#63c1c5"/>
              </g>
              <g id="Group_2072" data-name="Group 2072" transform="translate(21.485 17.674)">
                <rect id="Rectangle_1667" data-name="Rectangle 1667" width="198.974" height="0.863" fill="#63c1c5"/>
              </g>
              <g id="Group_2073" data-name="Group 2073" transform="translate(21.485 21.572)">
                <rect id="Rectangle_1668" data-name="Rectangle 1668" width="198.974" height="0.863" fill="#63c1c5"/>
              </g>
              <g id="Group_2074" data-name="Group 2074" transform="translate(28.261 25.47)">
                <rect id="Rectangle_1669" data-name="Rectangle 1669" width="194.026" height="0.863" fill="#63c1c5"/>
              </g>
              <g id="Group_2075" data-name="Group 2075" transform="translate(25.046 30.944)">
                <path id="Path_4146" data-name="Path 4146" d="M337.077,241.51H140.15v.863H336.874C336.925,242.082,337,241.8,337.077,241.51Z" transform="translate(-140.15 -241.51)" fill="#63c1c5"/>
              </g>
              <g id="Group_2076" data-name="Group 2076" transform="translate(22.568 36.294)">
                <rect id="Rectangle_1670" data-name="Rectangle 1670" width="198.974" height="0.863" fill="#63c1c5"/>
              </g>
              <g id="Group_2077" data-name="Group 2077" transform="translate(22.568 42.63)">
                <rect id="Rectangle_1671" data-name="Rectangle 1671" width="198.974" height="0.863" fill="#63c1c5"/>
              </g>
            </g>
          </g>
          <path id="Path_4148" data-name="Path 4148" d="M198.033,204.023H240.5V200.73H166.448v3.293H178.6a153.9,153.9,0,0,1-7.537,30.339c-.161,1.1-.355,2.206-.474,3.318-.068.672-.11,1.335-.152,2.007a25.822,25.822,0,0,1,4.415,4.23H166.44v3.293h74.048v-3.293H196.824a15.382,15.382,0,0,1-13.847-8.443,28.234,28.234,0,0,1-2.969-13.37,21.856,21.856,0,0,1,1.539-7.323A17.659,17.659,0,0,1,198.033,204.023Z" transform="translate(-71.872 -200.73)" fill="#f18813"/>
          <path id="Path_4149" data-name="Path 4149" d="M159.173,225.86v-3.774a21.638,21.638,0,0,1,21.781-21.357H76.421A21.638,21.638,0,0,0,54.64,222.087v3.774a21.638,21.638,0,0,0,21.781,21.357H180.954A21.644,21.644,0,0,1,159.173,225.86Z" transform="translate(-54.64 -200.73)" fill="#f7a605"/>
          <rect id="Rectangle_1672" data-name="Rectangle 1672" width="4.669" height="46.479" transform="translate(25.926)" fill="#fff"/>
          <rect id="Rectangle_1673" data-name="Rectangle 1673" width="2.335" height="46.479" transform="translate(34.224)" fill="#fff"/>
        </g>
      </g>
      <g id="Group_2092" data-name="Group 2092" transform="translate(606.614 343.872)">
        <path id="Path_4150" data-name="Path 4150" d="M214.366,141.011h3.992a9.447,9.447,0,0,1,8.628,5.507l3.8,8.393-7.9,3.707,2.529,1.675,1.4,12.748-28.988-.481-1.1-31.74,17.484.382Z" transform="translate(-173.95 -115.998)" fill="#63c1c5"/>
        <path id="Path_4151" data-name="Path 4151" d="M212.118,133.28a34.929,34.929,0,0,0,.914,5.441c.431,1.153,2.258,1,2.258,1s-1.413,6.063-6.589,6.063-5.98-5.209-5.98-5.209l3.68-.556-1.7-5.54Z" transform="translate(-174.874 -114.711)" fill="#f4a086"/>
        <g id="Group_2082" data-name="Group 2082" transform="translate(26.079 3.233)">
          <path id="Path_4152" data-name="Path 4152" d="M213.893,121.641l-1.184-6.851-12.079,5.283.736,4.006s.93,9.762,7.368,8.6C215.686,131.427,214.206,121.549,213.893,121.641Z" transform="translate(-200.63 -114.79)" fill="#f8b68f"/>
        </g>
        <path id="Path_4153" data-name="Path 4153" d="M234.906,157.81l1.633,5.673a11.312,11.312,0,0,1-3.29,11.512l-7.4,6.088-2.377-6.809,4.094-4.023a4.546,4.546,0,0,0,1.015-5.026l-1.573-3.707Z" transform="translate(-178.072 -118.897)" fill="#f8b68f"/>
        <path id="Path_4154" data-name="Path 4154" d="M190.006,159.58l-.905,2.762a14.272,14.272,0,0,0,3.324,14.381l4.492,4.661,2.318-10.9-6.4-10.9h-2.825Z" transform="translate(-172.665 -119.199)" fill="#f8b68f"/>
        <path id="Path_4155" data-name="Path 4155" d="M189.23,162.031l4.026,2.289.685-6.56H190.33Z" transform="translate(-172.794 -118.888)" fill="#63c1c5"/>
        <path id="Path_4156" data-name="Path 4156" d="M199.523,123.845c7.765,1.6,12.138-6.876,12.138-6.876a11.953,11.953,0,0,0,.5,4.387c2.614-3.326.905-7.514.905-7.514s-2.115-4.578-11.529-2.331c-10.988,2.613-12.815,17.409-12.815,17.409s-.8,3.218,2.022,8.385a4.171,4.171,0,0,1-.271,4.57,9.452,9.452,0,0,0-1.751,6.718,5.134,5.134,0,0,0,1.912,3.2,5.293,5.293,0,0,1,1.582,5.565c-1.353,3.948-.195,6.2-.195,6.2s.736,2.538,4.762,2.7c5.87.224,5.743-4.346,5.211-6.917a3.093,3.093,0,0,1,.744-2.737,5.632,5.632,0,0,0,1.548-3.666,8.8,8.8,0,0,0-1.133-4.072,4.523,4.523,0,0,1,.389-4.819c1.5-2,3.434-5.963,2.352-8.543C204.039,131.152,200.918,129.7,199.523,123.845Z" transform="translate(-172.7 -110.891)" fill="url(#linear-gradient-7)"/>
        <g id="Group_2083" data-name="Group 2083" transform="translate(22.788 46.66)">
          <rect id="Rectangle_1674" data-name="Rectangle 1674" width="29.36" height="17.235" fill="url(#linear-gradient-8)"/>
          <rect id="Rectangle_1675" data-name="Rectangle 1675" width="29.36" height="1.435" transform="translate(0 16.513)" fill="#cbb8cd"/>
          <path id="Path_4157" data-name="Path 4157" d="M212.7,175.393a1.176,1.176,0,1,0,1.176-1.153A1.162,1.162,0,0,0,212.7,175.393Z" transform="translate(-199.2 -168.36)" fill="#fff"/>
        </g>
        <path id="Path_4158" data-name="Path 4158" d="M247.627,181.709c3.781,11.147-46.4,16.131-46.4,16.131l-1.2-6.3C200.03,191.545,243.846,170.562,247.627,181.709Z" transform="translate(-174.459 -122.417)" fill="#212b53"/>
        <g id="Group_2087" data-name="Group 2087" transform="translate(0.002 70.29)">
          <path id="Path_4159" data-name="Path 4159" d="M196.3,200.849l-7.19.423-1.37-1.468.694-2.662,6.8-.962Z" transform="translate(-172.566 -195.733)" fill="#f8b68f"/>
          <g id="Group_2086" data-name="Group 2086">
            <path id="Path_4160" data-name="Path 4160" d="M187.047,196.959l-7.325-.871a15.311,15.311,0,0,0-5.371-.323v6.519a18,18,0,0,0,3.781-.025l8.907-1.078-.1-.149A3.586,3.586,0,0,1,187.047,196.959Z" transform="translate(-170.503 -195.642)" fill="#01898c"/>
            <path id="Path_4161" data-name="Path 4161" d="M169.927,198.658c.491-1.841,2.064-2.613,3.764-2.878v6.527C171.484,202.067,169.242,201.212,169.927,198.658Z" transform="translate(-169.802 -195.665)" fill="#fff"/>
            <g id="Group_2084" data-name="Group 2084" transform="translate(12.213 1.79)">
              <line id="Line_38" data-name="Line 38" y2="2.803" transform="translate(0.372)" fill="#f8b68f"/>
              <rect id="Rectangle_1676" data-name="Rectangle 1676" width="0.736" height="2.803" fill="#fff"/>
            </g>
            <g id="Group_2085" data-name="Group 2085" transform="translate(10.411 1.79)">
              <line id="Line_39" data-name="Line 39" y2="2.803" transform="translate(0.364)" fill="#f8b68f"/>
              <rect id="Rectangle_1677" data-name="Rectangle 1677" width="0.736" height="2.803" fill="#fff"/>
            </g>
          </g>
        </g>
        <path id="Path_4162" data-name="Path 4162" d="M199.407,193.09l1.345,8.136-3.172.6-1.59-7.78Z" transform="translate(-173.836 -124.916)" fill="#63c1c5"/>
        <path id="Path_4163" data-name="Path 4163" d="M216.272,123.171c-.321.829-.127,1.667.431,1.883s1.277-.282,1.607-1.111.127-1.667-.431-1.883S216.6,122.342,216.272,123.171Z" transform="translate(-176.938 -112.788)" fill="#f8b68f"/>
        <path id="Path_4164" data-name="Path 4164" d="M170,181.709c-3.781,11.147,46.4,16.131,46.4,16.131l1.2-6.3C217.6,191.545,173.792,170.562,170,181.709Z" transform="translate(-169.799 -122.417)" fill="#212b53"/>
        <g id="Group_2091" data-name="Group 2091" transform="translate(49.636 70.295)">
          <path id="Path_4165" data-name="Path 4165" d="M228.48,200.849l7.2.423,1.362-1.468-.694-2.662-6.8-.962Z" transform="translate(-228.48 -195.738)" fill="#f8b68f"/>
          <g id="Group_2090" data-name="Group 2090" transform="translate(7.19)">
            <path id="Path_4166" data-name="Path 4166" d="M249.7,195.774a15.27,15.27,0,0,0-5.4.323l-7.325.871a3.571,3.571,0,0,1,.1,4.072l-.1.149,8.907,1.078a18.261,18.261,0,0,0,3.806.025v-6.519Z" transform="translate(-236.98 -195.648)" fill="#01898c"/>
            <path id="Path_4167" data-name="Path 4167" d="M255.7,198.658c-.491-1.841-2.064-2.613-3.764-2.878v6.527C254.156,202.067,256.389,201.212,255.7,198.658Z" transform="translate(-239.286 -195.67)" fill="#fff"/>
            <g id="Group_2088" data-name="Group 2088" transform="translate(3.603 1.785)">
              <line id="Line_40" data-name="Line 40" y2="2.803" transform="translate(0.364)" fill="#f8b68f"/>
              <rect id="Rectangle_1678" data-name="Rectangle 1678" width="0.736" height="2.803" fill="#fff"/>
            </g>
            <g id="Group_2089" data-name="Group 2089" transform="translate(5.405 1.785)">
              <line id="Line_41" data-name="Line 41" y2="2.803" transform="translate(0.372)" fill="#f8b68f"/>
              <rect id="Rectangle_1679" data-name="Rectangle 1679" width="0.736" height="2.803" fill="#fff"/>
            </g>
          </g>
        </g>
        <path id="Path_4168" data-name="Path 4168" d="M226.066,193.09l-1.336,8.136,3.172.6,1.582-7.78Z" transform="translate(-178.266 -124.916)" fill="#63c1c5"/>
      </g>
    </g>
    <g id="Group_2352" data-name="Group 2352" transform="translate(-347.711 271.963)">
      <path id="Fill-41" d="M179.267,310.186H166.04s.736,4.992,13.227,4.992,13.227-4.992,13.227-4.992H179.267" transform="translate(780.885 730.092)" fill="#043c5e" fill-rule="evenodd"/>
      <path id="Fill-42" d="M192.374,104.243c-8.63-10.076-21.461-17.224-35.464-17.456-8.1-.135-16.634.876-23.868,4.514a53.334,53.334,0,0,0-16.381,12.931c-7.734,9.024-12.191,20.795-10.854,32.329,1.116,9.63,6.162,18.462,12.831,25.692,6.5,7.052,15.982,12.871,17.605,22.83.464,2.844-.649,6.775,1.652,9.049,2.738,2.707,7.184,1.765,10.688,1.739q6.253-.046,12.506-.072c.594,0,1.259.026,1.96.054,2.828.115,6.254.231,8.061-1.717,2.3-2.274,1.19-6.205,1.655-9.049,1.225-7.5,7.43-13.579,13.142-18.466,6.556-5.608,11.751-12.057,14.679-20.02,5.421-14.743,2.111-30.306-8.212-42.359" transform="translate(805.784 829.591)" fill="#f7a605" fill-rule="evenodd"/>
      <path id="Fill-43" d="M172.431,231.038s-.259-6.576-.678-14.763-1-17.984-1.638-24.455a49.37,49.37,0,0,0-2.422-12.362,25.215,25.215,0,0,0-2.807-5.916,10.736,10.736,0,0,0-2.451-2.649,5.5,5.5,0,0,0-5.163-.9,5.237,5.237,0,0,0-2.615,1.707,4.033,4.033,0,0,0-.822,2.509,8.409,8.409,0,0,0,1.963,4.869,12.365,12.365,0,0,0,1.9,1.968,8.684,8.684,0,0,0,2.16,1.338,12.8,12.8,0,0,0,4.746.782,20.915,20.915,0,0,0,4.35-.466,13.928,13.928,0,0,0,3.761-1.332,15.641,15.641,0,0,0,8.115-13.431,14,14,0,0,0-.228-2.521,4.779,4.779,0,0,0-1.921-3.029,5.711,5.711,0,0,0-8.7,2.59,6.1,6.1,0,0,0-.352,2.235,16.391,16.391,0,0,0,.669,4.313,19.339,19.339,0,0,0,3.371,6.767,10.948,10.948,0,0,0,2.775,2.495,7.58,7.58,0,0,0,3.568,1.132q.32.017.638.017a14.663,14.663,0,0,0,5.361-1.092,28.848,28.848,0,0,0,4.741-2.471,7.421,7.421,0,0,0,2.6-2.681,6.382,6.382,0,0,0,.806-3.1,5.8,5.8,0,0,0-1.221-3.621,4.564,4.564,0,0,0-1.46-1.208,4.19,4.19,0,0,0-1.933-.468,5.058,5.058,0,0,0-2.282.577,8.406,8.406,0,0,0-2.264,1.743,20.354,20.354,0,0,0-4.534,8.605,43.832,43.832,0,0,0-1.441,9.367c-.836,15.513-1.049,27.7-1.575,43.2l1.864.057c.526-15.515.739-27.689,1.574-43.168a42.238,42.238,0,0,1,1.381-9.006,18.684,18.684,0,0,1,4.119-7.882,6.58,6.58,0,0,1,1.756-1.367,3.105,3.105,0,0,1,1.4-.369,2.228,2.228,0,0,1,1.038.252,2.968,2.968,0,0,1,1.217,1.255,4.3,4.3,0,0,1,.5,2.032,4.711,4.711,0,0,1-.6,2.282,5.622,5.622,0,0,1-1.983,2.03,27.039,27.039,0,0,1-4.425,2.311,12.708,12.708,0,0,1-4.645.958c-.178,0-.356,0-.535-.014a5.993,5.993,0,0,1-3.471-1.427,13.94,13.94,0,0,1-3.795-5.5,16.921,16.921,0,0,1-1.355-6.028,4.557,4.557,0,0,1,.231-1.612,4.011,4.011,0,0,1,1.539-1.933,3.77,3.77,0,0,1,2.045-.591,3.811,3.811,0,0,1,2.228.7,3.026,3.026,0,0,1,1.224,1.937,12.326,12.326,0,0,1,.2,2.222,13.911,13.911,0,0,1-7.2,11.917,12.05,12.05,0,0,1-3.23,1.133,18.921,18.921,0,0,1-3.933.421,10.939,10.939,0,0,1-4-.634,6.839,6.839,0,0,1-1.681-1.051,10.547,10.547,0,0,1-2.283-2.649,5.841,5.841,0,0,1-.942-2.864,2.34,2.34,0,0,1,.466-1.476,3.391,3.391,0,0,1,1.712-1.078,3.715,3.715,0,0,1,1.151-.191,3.786,3.786,0,0,1,2.262.816,11.02,11.02,0,0,1,2.877,3.617,26.542,26.542,0,0,1,1.748,4.091,47.753,47.753,0,0,1,2.344,12c.635,6.411,1.214,16.2,1.632,24.376.209,4.089.378,7.775.5,10.439.058,1.332.1,2.408.135,3.152s.047,1.151.047,1.153l1.863-.065" transform="translate(785.911 796.393)" fill="#fffffe" fill-rule="evenodd"/>
      <path id="Fill-44" d="M192.515,285.553l-28.254,0v-2.985l28.254,0v2.985" transform="translate(781.618 742.394)" fill="#043c5e" fill-rule="evenodd"/>
      <path id="Fill-45" d="M192.686,296.368a1.482,1.482,0,0,1,.051-1.976l.175-.177a1.483,1.483,0,0,0,.072-1.952l-.285-.339a1.479,1.479,0,0,1,.13-2.007,1.479,1.479,0,0,0,.153-1.978l-.756-.951a1.492,1.492,0,0,0-1.169-.551l-28.076,0a1.492,1.492,0,0,0-1.169.551l-.756.951a1.479,1.479,0,0,0,.152,1.978,1.479,1.479,0,0,1,.129,2.007l-.285.339a1.483,1.483,0,0,0,.071,1.952l.175.177a1.483,1.483,0,0,1,.05,1.976l-.223.252a1.479,1.479,0,0,0,.079,2.005l.116.11a3.112,3.112,0,0,0,2.137.875l27.117,0a3.113,3.113,0,0,0,2.138-.875l.116-.11a1.48,1.48,0,0,0,.081-2.005l-.224-.252" transform="translate(783.077 740.671)" fill="#01898c" fill-rule="evenodd"/>
      <path id="Fill-46" d="M203.593,292.694a.417.417,0,0,0,.041-.177.45.45,0,0,0-.461-.434l-13.085,0a.434.434,0,1,0,0,.867l13.085,0a.461.461,0,0,0,.419-.257" transform="translate(771.172 738.155)" fill="#4693c3" fill-rule="evenodd"/>
      <path id="Fill-47" d="M175.517,292.69a.42.42,0,0,0,.041-.178.45.45,0,0,0-.461-.433h-7.252a.434.434,0,1,0,0,.867H175.1a.463.463,0,0,0,.419-.257" transform="translate(780.332 738.156)" fill="#4693c3" fill-rule="evenodd"/>
      <path id="Fill-48" d="M184,298.141a.422.422,0,0,0,.041-.177.449.449,0,0,0-.46-.433l-18.964,0a.434.434,0,1,0,0,.867l18.964,0a.461.461,0,0,0,.418-.256" transform="translate(781.66 735.729)" fill="#4693c3" fill-rule="evenodd"/>
      <path id="Fill-49" d="M208.914,298.146a.418.418,0,0,0,.041-.177.45.45,0,0,0-.46-.434H202.9a.434.434,0,1,0,0,.867H208.5a.461.461,0,0,0,.419-.257" transform="translate(765.896 735.726)" fill="#4693c3" fill-rule="evenodd"/>
      <path id="Fill-50" d="M178.407,303.59a.421.421,0,0,0,.041-.177.449.449,0,0,0-.46-.433l-10.145,0a.434.434,0,1,0,0,.867h10.145a.463.463,0,0,0,.419-.256" transform="translate(780.333 733.302)" fill="#4693c3" fill-rule="evenodd"/>
      <path id="Fill-51" d="M200.869,303.594a.421.421,0,0,0,.041-.177.449.449,0,0,0-.46-.433h-4.077a.434.434,0,1,0,0,.867h4.077a.462.462,0,0,0,.419-.256" transform="translate(768.585 733.3)" fill="#4693c3" fill-rule="evenodd"/>
      <path id="Fill-52" d="M185.153,292.692a.418.418,0,0,0,.041-.177.45.45,0,0,0-.46-.434h-1.47a.434.434,0,1,0,0,.867h1.469a.46.46,0,0,0,.419-.257" transform="translate(773.983 738.155)" fill="#4693c3" fill-rule="evenodd"/>
      <path id="Fill-53" d="M190.952,195.612h0a6.084,6.084,0,0,0,1.973-.8,6.084,6.084,0,0,1-1.973.8m-28.254-.1a5.974,5.974,0,0,1-2.2-1.371l-.032-.032.032.032a5.974,5.974,0,0,0,2.2,1.371m44.561-27.8q.627-.552,1.251-1.085.579-.5,1.144-1-.565.5-1.144,1-.623.533-1.251,1.085m16.858-23.921a40.888,40.888,0,0,0-2.728-29.892,40.888,40.888,0,0,1,2.728,29.892M202.054,93.368q-.515-.305-1.038-.6l.669.12.369.479m-22.54-6.575-.211,0,.211,0" transform="translate(783.18 829.584)" fill="#f7d9d9" fill-rule="evenodd"/>
      <path id="Fill-54" d="M133.892,104.212l4.875-4.522,1.611-.331a53.1,53.1,0,0,0-6.486,4.853" transform="translate(794.123 823.986)" fill="#e4d0d8" fill-rule="evenodd"/>
      <path id="Fill-56" d="M179.735,195.606v-.235H170.91c.3-9.081.5-17.086.805-25.433a18.827,18.827,0,0,1,2.7-1.346c19.9-8.123,29.531-21.373,30.151-39.958a38.016,38.016,0,0,0-8.961-25.493c-9.453-5.52-22.094-7.109-33.527-7.109a149.881,149.881,0,0,0-28.858,2.941l.392-.364a53.093,53.093,0,0,1,6.486-4.853l7.411-1.519,11.474-1.664,15-.647,5.743,1.031a45.035,45.035,0,0,0-16.265-4.1q1.751-.081,3.491-.079.563,0,1.124.008l.211,0h.317a45.558,45.558,0,0,1,21.174,5.968l.012,0q.523.294,1.038.6l.006.008a52.067,52.067,0,0,1,12.8,10.742l.007.008.013.015.011.013.012.014.012.014.011.013.015.017.008.009.024.028a46.7,46.7,0,0,1,6.411,9.651,40.888,40.888,0,0,1,2.728,29.892q-.411,1.412-.927,2.816a45.24,45.24,0,0,1-10.5,16.128q-1.457,1.485-3.035,2.892-.565.5-1.144,1-.623.533-1.251,1.085c-5.331,4.688-10.743,10.412-11.887,17.359l0,.022a13.518,13.518,0,0,0-.131,2.143c0,.522.011,1.057.011,1.591,0,1.973-.148,3.945-1.534,5.315a4.261,4.261,0,0,1-.789.664,6.083,6.083,0,0,1-1.973.8m-28.254-.1a5.973,5.973,0,0,1-2.2-1.371l-.032-.032a4.351,4.351,0,0,1-.547-.693,34.914,34.914,0,0,0,6.066.544,29.768,29.768,0,0,0,7.109-.837q.011.249.022.486c.029.654.054,1.246.076,1.768l-10.495,0v.136m17.563-.134h-5.2c-.033-.775-.074-1.711-.121-2.777l.3-.1a4.1,4.1,0,0,0,1.633-.862,3.406,3.406,0,0,0,.815-1.734c.916-4.145-.475-8.357.138-12.515a9.747,9.747,0,0,1,3.2-6.031c-.278,7.848-.474,15.459-.754,24.018" transform="translate(794.398 829.591)" fill="#f18813" fill-rule="evenodd"/>
      <path id="Fill-57" d="M190.967,262.146H189.1c.281-8.559.476-16.17.754-24.018a12.887,12.887,0,0,1,1.917-1.415c-.306,8.348-.508,16.352-.805,25.433m-7.068,0h-1.866c-.022-.522-.048-1.114-.076-1.768q-.011-.238-.022-.486.929-.228,1.843-.522c.048,1.066.088,2,.121,2.777" transform="translate(774.341 762.814)" fill="#f7d9d9" fill-rule="evenodd"/>
      <path id="Fill-58" d="M168.09,283.248a11.259,11.259,0,0,1-3.829-.547v-.136l10.495,0h17.759v.235a14.37,14.37,0,0,1-3.223.3c-.706,0-1.408-.027-2.076-.054s-1.3-.054-1.875-.054h-.085q-6.253.031-12.506.072c-1.454.011-3.07.179-4.659.179" transform="translate(781.618 742.394)" fill="#3c7db4" fill-rule="evenodd"/>
      <path id="Fill-59" d="M114.063,156.6c-8.348-20.356,8.6-37.595,8.6-37.595a10.181,10.181,0,0,1,7.722-3.726c6.887,0,11.775,7.752-2.092,14.933-15.207,7.874-14.231,26.388-14.231,26.388" transform="translate(803.239 816.898)" fill="#f3b061" fill-rule="evenodd"/>
      <path id="Fill-60" d="M143.54,45.777l64.287-11.558L143.54,11.1v-.033l-.046.017-.046-.017V11.1L79.16,34.219l64.287,11.558v.017l.046-.008.046.008v-.017" transform="translate(816.66 863.308)" fill="#212b53" fill-rule="evenodd"/>
      <path id="Fill-61" d="M198.507,45.324V78.157a87.265,87.265,0,0,0-13.628-3.545,103.262,103.262,0,0,0-18.611-1.742c-19.394,0-33.039,5.287-33.039,5.287V45.324s13.645-5.287,33.039-5.287a103.211,103.211,0,0,1,18.611,1.742c1.277.238,2.484.483,3.607.738a79.316,79.316,0,0,1,10.021,2.808" transform="translate(794.396 850.406)" fill="#043c5e" fill-rule="evenodd"/>
      <path id="Fill-62" d="M100.794,81.315a.286.286,0,0,1-.294-.277V44.261a.295.295,0,0,1,.588,0V81.038a.286.286,0,0,1-.294.277" transform="translate(807.873 848.648)" fill="#f7cc40" fill-rule="evenodd"/>
      <path id="Fill-63" d="M101.694,132.88H97.066V109.472a2.318,2.318,0,0,1,4.628,0V132.88" transform="translate(809.286 820.454)" fill="#f7cc40" fill-rule="evenodd"/>
      <path id="Fill-64" d="M186.841,42.163l-.16-.033c-.585-.119-1.182-.236-1.8-.351a103.211,103.211,0,0,0-18.611-1.742c-19.394,0-33.039,5.287-33.039,5.287v2.563S175.977,43.3,184.88,62.312v12.3a87.265,87.265,0,0,1,13.628,3.545V45.324a84.1,84.1,0,0,0-11.666-3.161" transform="translate(794.396 850.406)" fill="#043c5e" fill-rule="evenodd"/>
      <path id="Fill-98" d="M147.133,291.629l.01-7.373c0,.032,0,.063,0,.1l-.012,7.277" transform="translate(788.671 741.64)" fill="#e05a29" fill-rule="evenodd"/>
    </g>
  </g>
</svg>
