<svg xmlns="http://www.w3.org/2000/svg" xmlns:xlink="http://www.w3.org/1999/xlink" width="1327.629" height="478.117" viewBox="0 0 1327.629 478.117">
  <defs>
    <linearGradient id="linear-gradient" x1="-1.442" y1="-4.097" x2="-1.418" y2="-4.097" gradientUnits="objectBoundingBox">
      <stop offset="1" stop-color="#f1f8f8"/>
      <stop offset="1" stop-color="#bee3ef"/>
    </linearGradient>
    <linearGradient id="linear-gradient-2" x1="-1.241" y1="-2.275" x2="-1.218" y2="-2.275" gradientUnits="objectBoundingBox">
      <stop offset="1" stop-color="#f1f8f8"/>
      <stop offset="1" stop-color="#c1e4ef"/>
    </linearGradient>
    <linearGradient id="linear-gradient-3" x1="-9.923" y1="-3.599" x2="-9.888" y2="-3.599" gradientUnits="objectBoundingBox">
      <stop offset="0" stop-color="#d7edf3"/>
      <stop offset="0.467" stop-color="#c0e4ef"/>
    </linearGradient>
    <linearGradient id="linear-gradient-4" x1="-10.319" y1="-6.869" x2="-10.282" y2="-6.869" gradientUnits="objectBoundingBox">
      <stop offset="0" stop-color="#c5e6f0"/>
      <stop offset="0.098" stop-color="#c0e4ef"/>
    </linearGradient>
  </defs>
  <g id="Group_3314" data-name="Group 3314" transform="translate(-296.955 -315.391)">
    <g id="Group_3253" data-name="Group 3253" transform="translate(283.14 268.428)">
      <g id="Group_3251" data-name="Group 3251" transform="translate(198.632 46.963)">
        <path id="Path_5856" data-name="Path 5856" d="M241.765,46.963l-109.07,5.5L86.418,65.157,58.463,82.118Z" transform="translate(-41.384 -46.963)" fill="url(#linear-gradient)"/>
        <path id="Path_5857" data-name="Path 5857" d="M241.765,46.963,66.444,87.614l-7.981-5.5" transform="translate(-41.384 -46.963)" fill="#b0d9c8"/>
        <path id="Path_5858" data-name="Path 5858" d="M62.991,107.081l.4.139L84.9,120.39,225.452,47.018Z" transform="translate(-25.436 -46.848)" fill="#63c1c5"/>
        <path id="Path_5859" data-name="Path 5859" d="M54.686,110.46,64.761,88.983,253.946,47.049l-141.04,59.034Z" transform="translate(-54.686 -46.782)" fill="url(#linear-gradient-2)"/>
      </g>
      <g id="Group_3252" data-name="Group 3252" transform="translate(13.815 111.64)">
        <path id="Path_5860" data-name="Path 5860" d="M26.69,189.9a92.789,92.789,0,0,0,10.337-10.768,3.334,3.334,0,0,1,3.523-.632c1.23.48,1.673,1.55.99,2.4a103.991,103.991,0,0,1-10.735,11.165c-1.411,1.277-2.88,2.5-4.391,3.726a3.257,3.257,0,0,1-2.13.645,3.293,3.293,0,0,1-1.533-.409,1.692,1.692,0,0,1-.913-1.215,1.463,1.463,0,0,1,.615-1.3C23.9,192.354,25.32,191.139,26.69,189.9Z" transform="translate(14.413 164.023)" fill="#63c1c5"/>
        <path id="Path_5861" data-name="Path 5861" d="M43.758,75.313c7.4-2.433,15.212-4.854,23.89-7.318a3.639,3.639,0,0,1,2.654.189,1.6,1.6,0,0,1,1.036,1.686A2.1,2.1,0,0,1,69.673,71.3c-8.632,2.458-16.365,4.838-23.632,7.256a3.09,3.09,0,0,1-1.289.161,2.852,2.852,0,0,1-2.2-1.02c-.588-.89-.059-1.937,1.207-2.387Z" transform="translate(86.546 -67.83)" fill="#63c1c5"/>
        <path id="Path_5862" data-name="Path 5862" d="M36.73,84.485a2.925,2.925,0,0,1-2-.79c-.8-.824-.475-1.934.724-2.486,6.973-3.168,14.556-6.283,22.556-9.23a3.63,3.63,0,0,1,1.972-.139,2.548,2.548,0,0,1,1.528.868c.678.871.208,1.956-1.054,2.43-7.873,2.9-15.334,5.973-22.144,9.057a3.464,3.464,0,0,1-1.578.291Z" transform="translate(58.298 -59.57)" fill="#63c1c5"/>
        <path id="Path_5863" data-name="Path 5863" d="M34.691,171.079a1.924,1.924,0,0,1,1.126-1.125,3.609,3.609,0,0,1,1.963-.236c1.393.214,2.275,1.156,1.981,2.114a78.022,78.022,0,0,1-8.1,17.3,2.858,2.858,0,0,1-2.564,1.076,4.363,4.363,0,0,1-.864-.146,2.3,2.3,0,0,1-1.406-.976,1.261,1.261,0,0,1,.045-1.373,75.129,75.129,0,0,0,7.823-16.629Z" transform="translate(31.356 145.999)" fill="#63c1c5"/>
        <path id="Path_5864" data-name="Path 5864" d="M31.3,181.935a3.09,3.09,0,0,1-1.764-.657,1.424,1.424,0,0,1-.552-1.324c.271-1.578.448-3.174.574-4.764a63.465,63.465,0,0,0-.154-12.739,1.444,1.444,0,0,1,.6-1.308,3.13,3.13,0,0,1,1.782-.626c1.433-.074,2.691.651,2.822,1.633a67.849,67.849,0,0,1,.19,13.207c-.158,1.658-.371,3.292-.629,4.928-.145.952-1.352,1.655-2.745,1.6A.193.193,0,0,1,31.3,181.935Z" transform="translate(39.556 126.762)" fill="#63c1c5"/>
        <path id="Path_5865" data-name="Path 5865" d="M37,172.325a3.976,3.976,0,0,1-.638.016,2.478,2.478,0,0,1-2.41-1.463,90.8,90.8,0,0,0-6.7-16.964c-.479-.933.24-1.953,1.6-2.281a3.029,3.029,0,0,1,3.324,1.1,92.325,92.325,0,0,1,6.873,17.447,1.36,1.36,0,0,1-.375,1.364A2.878,2.878,0,0,1,37,172.325Z" transform="translate(32.988 107.908)" fill="#63c1c5"/>
        <path id="Path_5866" data-name="Path 5866" d="M20.19,110.1c-.344,2.343-.647,4.68-.855,7.008a91.191,91.191,0,0,0-.321,10.591c.018.986-1.117,1.8-2.55,1.829-.045.006-.14-.012-.185-.006-1.357-.053-2.424-.815-2.437-1.745a98.617,98.617,0,0,1,.335-10.879c.194-2.387.525-4.789.9-7.2a1.643,1.643,0,0,1,.932-1.227,3.426,3.426,0,0,1,1.953-.36,3.022,3.022,0,0,1,1.718.679,1.4,1.4,0,0,1,.511,1.311Z" transform="translate(-13.815 16.696)" fill="#63c1c5"/>
        <path id="Path_5867" data-name="Path 5867" d="M19.217,118.9A92.307,92.307,0,0,0,23.4,136.273c.33.958-.52,1.919-1.913,2.157a3.179,3.179,0,0,1-.769.034,2.538,2.538,0,0,1-2.388-1.373,97.609,97.609,0,0,1-4.309-17.829c-.136-.979.9-1.854,2.333-1.959C17.784,117.22,19.05,117.927,19.217,118.9Z" transform="translate(-13.114 36.029)" fill="#63c1c5"/>
        <path id="Path_5868" data-name="Path 5868" d="M25.959,101.408A112.375,112.375,0,0,0,19.728,118.5a2.639,2.639,0,0,1-2.691,1.469c-.095-.019-.231,0-.326-.022a2.869,2.869,0,0,1-1.673-.738,1.335,1.335,0,0,1-.393-1.339,111.926,111.926,0,0,1,6.39-17.522,2.982,2.982,0,0,1,3.278-1.162,2.543,2.543,0,0,1,1.5.874,1.272,1.272,0,0,1,.149,1.345Z" transform="translate(-11.069 -2.166)" fill="#63c1c5"/>
        <path id="Path_5869" data-name="Path 5869" d="M26.169,100.1a3.052,3.052,0,0,1-2.365.8,3.535,3.535,0,0,1-1.266-.282A1.919,1.919,0,0,1,21.416,99.5a1.332,1.332,0,0,1,.375-1.336,160.948,160.948,0,0,1,15.741-14.5,3.53,3.53,0,0,1,3.667-.2,1.686,1.686,0,0,1,.913,1.215,1.442,1.442,0,0,1-.615,1.3A162.4,162.4,0,0,0,26.169,100.1Z" transform="translate(12.765 -35.889)" fill="#63c1c5"/>
        <path id="Path_5870" data-name="Path 5870" d="M34.769,154.205a3.919,3.919,0,0,1-1.325.2,2.887,2.887,0,0,1-2.193-.989l-1.5-2.018c-3.391-4.649-6.792-9.33-10.1-14.022-.629-.886-.09-1.956,1.2-2.387a3.221,3.221,0,0,1,3.482.828c3.26,4.665,6.652,9.314,10.043,13.967l1.456,2.024a1.246,1.246,0,0,1,.235,1.361A2.09,2.09,0,0,1,34.769,154.205Z" transform="translate(5.815 72.794)" fill="#63c1c5"/>
        <path id="Path_5871" data-name="Path 5871" d="M22.147,109.237a2.759,2.759,0,0,1-2.559,1.107,3.34,3.34,0,0,1-.809-.118,2.384,2.384,0,0,1-1.424-.952,1.266,1.266,0,0,1-.018-1.361A136.573,136.573,0,0,1,28.541,91.558a3.339,3.339,0,0,1,3.532-.722A2.079,2.079,0,0,1,33.33,91.9a1.287,1.287,0,0,1-.249,1.361,138.129,138.129,0,0,0-10.934,15.975Z" transform="translate(-2.084 -19.964)" fill="#63c1c5"/>
        <path id="Path_5872" data-name="Path 5872" d="M24.943,143.246a3.245,3.245,0,0,1,3.482.828c4.472,6.311,7.913,11.49,10.857,16.353.484.905-.163,1.909-1.465,2.275a3.17,3.17,0,0,1-3.369-.917c-2.876-4.776-6.308-9.925-10.713-16.152-.592-.886-.059-1.937,1.207-2.387Z" transform="translate(20.275 90.138)" fill="#63c1c5"/>
        <path id="Path_5873" data-name="Path 5873" d="M35.69,186.019a3.469,3.469,0,0,1,2.55-.459,2.312,2.312,0,0,1,1.831,1.3,1.469,1.469,0,0,1-.76,1.73A215.321,215.321,0,0,1,19.3,200.315a3.782,3.782,0,0,1-1.741.372,3.044,3.044,0,0,1-1.931-.7c-.859-.781-.638-1.891.488-2.486A222.654,222.654,0,0,0,35.69,186.019Z" transform="translate(-9.283 179.21)" fill="#63c1c5"/>
        <path id="Path_5874" data-name="Path 5874" d="M17.7,126.386a3.037,3.037,0,0,1,3.287,1.134,155.07,155.07,0,0,0,9.284,16.487c.57.905-.041,1.953-1.357,2.343a3.88,3.88,0,0,1-1.2.149,2.747,2.747,0,0,1-2.216-1.079,153.983,153.983,0,0,1-9.46-16.809,1.258,1.258,0,0,1,.14-1.354A2.524,2.524,0,0,1,17.7,126.386Z" transform="translate(-6.487 54.935)" fill="#63c1c5"/>
        <path id="Path_5875" data-name="Path 5875" d="M40.536,81c2.356-1.333,4.716-2.666,7.19-3.918a3.572,3.572,0,0,1,3.672.329c.873.79.656,1.912-.484,2.52-2.383,1.24-4.712,2.508-6.982,3.828-4.269,2.452-8.406,5.046-12.336,7.74a3.484,3.484,0,0,1-3.672.019A1.426,1.426,0,0,1,27.9,89q6-4.222,12.634-8Z" transform="translate(33.167 -49.15)" fill="#63c1c5"/>
      </g>
    </g>
    <g id="Group_3250" data-name="Group 3250" transform="translate(984.22 254.725)">
      <g id="Group_3244" data-name="Group 3244" transform="translate(286.029 60.666)">
        <path id="Path_5849" data-name="Path 5849" d="M463.494,67.978l38.158,27.3-47.534,7.694L286.029,118.016Z" transform="translate(-286.029 -29.072)" fill="#b0d9c8"/>
        <path id="Path_5850" data-name="Path 5850" d="M384.255,73.108,308.8,96.7l14.061-14.648Z" transform="translate(-168.632 -6.906)" fill="#63c1c5"/>
        <path id="Path_5851" data-name="Path 5851" d="M463.494,99.572l-4.187-38.906L286.029,149.61Z" transform="translate(-286.029 -60.666)" fill="url(#linear-gradient-3)"/>
        <path id="Path_5852" data-name="Path 5852" d="M286.029,89.6,454.118,74.554l2.567,57.364Z" transform="translate(-286.029 -0.658)" fill="url(#linear-gradient-4)"/>
      </g>
      <g id="Group_3249" data-name="Group 3249" transform="translate(396.994 159.421)">
        <g id="Group_3245" data-name="Group 3245" transform="translate(81.055)">
          <path id="Path_5853" data-name="Path 5853" d="M342.263,88a2.508,2.508,0,0,0,.677-1.064,2.846,2.846,0,0,0-.234-2.48,3.657,3.657,0,0,0-2.21-1.6,119.807,119.807,0,0,0-19.042-3.6,4.173,4.173,0,0,0-2.8.665,3.175,3.175,0,0,0-1.416,2.187,3.431,3.431,0,0,0,3.3,3.639,110.576,110.576,0,0,1,17.706,3.347A4.352,4.352,0,0,0,342.263,88Z" transform="translate(-317.219 -79.226)" fill="#63c1c5"/>
        </g>
        <g id="Group_3247" data-name="Group 3247" transform="translate(0 11.354)">
          <g id="Group_3246" data-name="Group 3246">
            <path id="Path_5854" data-name="Path 5854" d="M524.926,424.76c.031-.069.086-.09.123-.16a93.2,93.2,0,0,0,17-30.478,3.226,3.226,0,0,0-2.555-4.033,4.27,4.27,0,0,0-2.863.261,3.344,3.344,0,0,0-1.8,1.947,86.324,86.324,0,0,1-15.853,28.488,3,3,0,0,0,.807,4.565,4.356,4.356,0,0,0,5.141-.591Zm20.821-48.835a2.818,2.818,0,0,0,.825-1.7,104.228,104.228,0,0,0-1.158-33.66,3.753,3.753,0,0,0-4.353-2.66,3.34,3.34,0,0,0-3.078,3.762,101.225,101.225,0,0,1,1.077,31.893,2.937,2.937,0,0,0,.806,2.378,3.943,3.943,0,0,0,2.524,1.187A4.314,4.314,0,0,0,545.747,375.925Zm-6.834-51.831a2.77,2.77,0,0,0,.64-3.134l-.622-1.511a151.045,151.045,0,0,0-16.419-28.642,4.134,4.134,0,0,0-5.2-1.011,3.008,3.008,0,0,0-1.17,4.5A142.417,142.417,0,0,1,531.9,321.737l.572,1.41A3.461,3.461,0,0,0,534.395,325a4.319,4.319,0,0,0,2.881.117,4.1,4.1,0,0,0,1.638-1.022ZM509.1,278.489a2.9,2.9,0,0,0,.037-4.076,258.863,258.863,0,0,0-26-24.593,4.211,4.211,0,0,0-5.288.112,2.957,2.957,0,0,0,.049,4.571,256.055,256.055,0,0,1,25.327,23.923,3.916,3.916,0,0,0,2.524,1.213,4.157,4.157,0,0,0,2.77-.7,1.664,1.664,0,0,0,.579-.447Zm-42.639-37.448a2.916,2.916,0,0,0,.868-2.346A3.083,3.083,0,0,0,466,236.513c-.714-.484-1.391-1.043-2.106-1.527a109.065,109.065,0,0,0,11.439-12.919,3.005,3.005,0,0,0-1.145-4.475,4.152,4.152,0,0,0-5.19.931,105.232,105.232,0,0,1-10.934,12.323c-6.809-4.757-14.08-9.636-22.163-14.787a4.278,4.278,0,0,0-3.756-.356,3.336,3.336,0,0,0-2.235,2.634,3.1,3.1,0,0,0,1.521,2.99c7.788,4.97,14.849,9.695,21.424,14.249-2.684,2.277-5.5,4.432-8.416,6.513a2.966,2.966,0,0,0-.6,4.571,4.18,4.18,0,0,0,5.295.511q4.95-3.5,9.573-7.407c.819.564,1.6,1.2,2.419,1.761a4.25,4.25,0,0,0,5.326-.484ZM485.4,204.79a3.061,3.061,0,0,0,.609-.926,76.485,76.485,0,0,0,6.741-33.42,3.567,3.567,0,0,0-3.817-3.161,3.531,3.531,0,0,0-3.712,3.251,78.033,78.033,0,0,1-.72,12.1,75.465,75.465,0,0,1-5.51,18.873,3.08,3.08,0,0,0,1.619,3.953,4.215,4.215,0,0,0,4.79-.67ZM430.72,257.541a2.936,2.936,0,0,0,0-4.145,4.187,4.187,0,0,0-4.7-.819,123.1,123.1,0,0,1-34.63,10.285,3.859,3.859,0,0,0-2.463,1.288,2.87,2.87,0,0,0-.64,2.426,3.733,3.733,0,0,0,4.291,2.682,130.214,130.214,0,0,0,36.963-10.988A2.682,2.682,0,0,0,430.72,257.541ZM489.01,153.055a2.912,2.912,0,0,0,.794-2.847,98.681,98.681,0,0,0-15.194-31.132,4.132,4.132,0,0,0-5.2-1.011,3.008,3.008,0,0,0-1.17,4.5,92.36,92.36,0,0,1,14.24,29.233,3.32,3.32,0,0,0,1.7,2.027,4.274,4.274,0,0,0,2.863.383,4.546,4.546,0,0,0,1.97-1.149ZM372.185,269.119a3.2,3.2,0,0,0,.862-1.889,2.938,2.938,0,0,0-.924-2.362,3.918,3.918,0,0,0-2.6-1.069c-3.152-.165-6.292-.479-9.4-.952a80.528,80.528,0,0,1-25-7.981,4.1,4.1,0,0,0-5.147,1.112,3,3,0,0,0,1.287,4.443,87.782,87.782,0,0,0,27.624,8.806q5.042.75,10.164,1.006a3.774,3.774,0,0,0,3.134-1.112ZM418.026,209.3a1.056,1.056,0,0,0,.209-.25,2.887,2.887,0,0,0,.56-2.458,3.282,3.282,0,0,0-1.619-2.075,158.378,158.378,0,0,0-34.55-15.542,3.948,3.948,0,0,0-4.765,2.011,2.808,2.808,0,0,0,.16,2.485,3.6,3.6,0,0,0,2.173,1.634,150.293,150.293,0,0,1,32.752,14.765,4.215,4.215,0,0,0,5.079-.569Zm42.51-102.118a2.909,2.909,0,0,0-.117-4.246,123.993,123.993,0,0,0-30.437-21.14,4.28,4.28,0,0,0-2.875-.314,3.676,3.676,0,0,0-2.278,1.548,3.061,3.061,0,0,0,1.422,4.454,115.385,115.385,0,0,1,28.6,19.858,4.212,4.212,0,0,0,5.338.208c.142-.112.2-.255.351-.367ZM318.981,246.873a2.924,2.924,0,0,0,.117-4.049,26.7,26.7,0,0,1-7.548-20.427,22.246,22.246,0,0,1,1.939-7.391,3.124,3.124,0,0,0-2.161-4.177,3.95,3.95,0,0,0-4.839,1.868,27.787,27.787,0,0,0-2.352,9.232,32.9,32.9,0,0,0,9.112,24.886,3.905,3.905,0,0,0,2.487,1.261,4.183,4.183,0,0,0,2.789-.628,1.671,1.671,0,0,1,.456-.575Zm43.058-56.407a2.9,2.9,0,0,0,.542-3.427,3.8,3.8,0,0,0-3.343-1.9A67.454,67.454,0,0,0,321.3,195.792a2.95,2.95,0,0,0-.591,4.491,4.15,4.15,0,0,0,5.171.639,59.611,59.611,0,0,1,33.109-9.312,3.973,3.973,0,0,0,3.047-1.144Z" transform="translate(-304.053 -81.36)" fill="#63c1c5"/>
          </g>
        </g>
        <g id="Group_3248" data-name="Group 3248" transform="translate(182.642 364.013)">
          <path id="Path_5855" data-name="Path 5855" d="M356.1,152.948a2.937,2.937,0,0,0-.259-4.363,4.206,4.206,0,0,0-5.048-.2,85.216,85.216,0,0,1-15.071,8.481,3.048,3.048,0,0,0-1.619,4.31,4.041,4.041,0,0,0,4.938,1.516,91.927,91.927,0,0,0,16.444-9.221A3.384,3.384,0,0,0,356.1,152.948Z" transform="translate(-333.72 -147.638)" fill="#63c1c5"/>
        </g>
      </g>
    </g>
  </g>
</svg>
